<svg width="50" height="50" viewBox="0 0 50 50" fill="none" xmlns="http://www.w3.org/2000/svg">
<g clip-path="url(#clip0)">
<rect width="50" height="50" transform="matrix(0 1 1 0 0 0)" fill="white"/>
<rect width="50" height="50" transform="matrix(0 1 1 0 0 0)" fill="#9C9C9C"/>
<rect width="5" height="5" transform="matrix(0 1 1 0 0 45)" fill="#7A7A7A"/>
<rect width="5" height="5" transform="matrix(0 1 1 0 0 0)" fill="#7A7A7A"/>
<rect width="5" height="5" transform="matrix(0 1 1 0 45 0)" fill="#7A7A7A"/>
<rect width="40" height="40" transform="matrix(0 1 1 0 5 5)" fill="#7A7A7A"/>
<rect width="29.848" height="29.848" rx="9" transform="matrix(0 1 1 0 10.076 10.076)" fill="#535353"/>
<rect width="5" height="5" transform="matrix(0 1 1 0 45 45)" fill="#7A7A7A"/>
</g>
<defs>
<clipPath id="clip0">
<rect width="50" height="50" fill="white" transform="matrix(0 1 1 0 0 0)"/>
</clipPath>
</defs>
</svg>
